<svg xmlns="http://www.w3.org/2000/svg" xmlns:xlink="http://www.w3.org/1999/xlink" viewBox="0 0 65 35" fill="#fff" fill-rule="evenodd" stroke="#000" stroke-linecap="round" stroke-linejoin="round"><use xlink:href="#B" x=".5" y=".5"/><defs><radialGradient cx="30%" cy="18%" fx="30%" fy="18%" id="A" r="86%" spreadMethod="pad"><stop offset="0%" stop-color="#aeb2d5"/><stop offset=".3%" stop-color="#aeb2d5"/><stop offset=".75%" stop-color="#484c89"/></radialGradient></defs><symbol id="B" overflow="visible"><g stroke="none" fill-rule="nonzero"><path d="M0 16.604c0 9.17 14.327 16.604 32 16.604s32-7.434 32-16.603S49.673 0 32 0 0 7.434 0 16.604" fill="url(#A)"/><path d="M32 31.974c16.983 0 30.75-6.882 30.75-15.371S48.983 1.233 32 1.233 1.25 8.115 1.25 16.604 15.017 31.974 32 31.974" fill="#777bb3"/><path d="M17.386 18.509c1.396 0 2.439-.254 3.098-.753.653-.495 1.103-1.354 1.339-2.552.22-1.119.136-1.901-.249-2.323-.394-.431-1.247-.649-2.534-.649h-2.231l-1.238 6.279h1.814zm-7.299 7.734a.35.35 0 0 1-.268-.125.34.34 0 0 1-.073-.283l3.279-16.639c.032-.161.175-.277.341-.277h7.066c2.221 0 3.874.594 4.913 1.768 1.045 1.179 1.367 2.828.959 4.9a7.74 7.74 0 0 1-.85 2.329c-.398.703-.924 1.353-1.562 1.933a6.88 6.88 0 0 1-2.574 1.521c-.926.298-2.116.449-3.536.449h-2.861l-.817 4.147c-.032.161-.175.277-.341.277h-3.676z" fill="#000"/><path d="M17.096 12.573h1.945c1.553 0 2.093.336 2.276.537.304.333.362 1.034.166 2.028-.22 1.113-.627 1.902-1.21 2.345-.597.454-1.569.684-2.887.684h-1.393l1.102-5.594zm3.337-3.996h-7.066c-.332 0-.618.232-.682.554L9.406 25.77a.68.68 0 0 0 .146.566.7.7 0 0 0 .536.249h3.675c.332 0 .618-.232.682-.554l.762-3.869h2.575c1.456 0 2.682-.157 3.644-.465.988-.317 1.898-.854 2.703-1.596a8.14 8.14 0 0 0 1.63-2.016c.414-.733.714-1.552.887-2.432.43-2.181.081-3.927-1.038-5.19-1.108-1.251-2.849-1.885-5.174-1.885m-5.282 10.274h2.235c1.481 0 2.585-.274 3.31-.826s1.214-1.47 1.469-2.758c.243-1.237.132-2.109-.332-2.618s-1.396-.763-2.792-.763h-2.518l-1.372 6.964m5.282-9.589c2.126 0 3.677.55 4.651 1.651s1.268 2.637.879 4.609c-.16.812-.431 1.555-.812 2.228s-.88 1.289-1.496 1.848c-.734.677-1.549 1.16-2.446 1.448s-2.039.432-3.428.432h-3.148l-.872 4.424h-3.675l3.278-16.639h7.067"/><path d="M34.729 21.82a.35.35 0 0 1-.268-.125.34.34 0 0 1-.073-.283l1.45-7.363c.138-.7.104-1.203-.096-1.415-.122-.13-.489-.348-1.575-.348H31.54l-1.823 9.255c-.032.161-.175.277-.341.277H25.73a.35.35 0 0 1-.268-.125.34.34 0 0 1-.073-.283l3.279-16.639c.032-.161.175-.277.341-.277h3.646a.35.35 0 0 1 .268.125.34.34 0 0 1 .073.283l-.791 4.016h2.827c2.153 0 3.613.374 4.464 1.145.868.786 1.137 2.043.804 3.735l-1.525 7.743c-.032.161-.175.277-.341.277h-3.704z" fill="#000"/><path d="M32.655 4.154h-3.646c-.332 0-.618.232-.682.554l-3.279 16.639a.68.68 0 0 0 .146.566.7.7 0 0 0 .536.249h3.646c.332 0 .618-.232.682-.554l1.769-8.978h2.341c1.084 0 1.311.228 1.32.238.066.068.152.393.009 1.116l-1.45 7.363a.68.68 0 0 0 .146.566.7.7 0 0 0 .536.249h3.704c.332 0 .618-.232.682-.554l1.525-7.743c.358-1.817.052-3.181-.91-4.053-.918-.831-2.455-1.235-4.699-1.235h-2.407l.711-3.608a.68.68 0 0 0-.146-.566.7.7 0 0 0-.536-.249m0 .685l-.872 4.424h3.248c2.044 0 3.453.352 4.229 1.055s1.007 1.843.698 3.418l-1.525 7.743h-3.704l1.45-7.362c.165-.837.104-1.409-.182-1.713s-.897-.457-1.829-.457h-2.913l-1.878 9.532h-3.646L29.009 4.84h3.646"/><path d="M46.068 18.509c1.396 0 2.439-.254 3.098-.753.653-.495 1.103-1.354 1.34-2.552.22-1.119.136-1.901-.249-2.323-.394-.431-1.247-.649-2.534-.649h-2.231l-1.238 6.279h1.814zm-7.299 7.734a.35.35 0 0 1-.268-.125.34.34 0 0 1-.073-.283l3.279-16.639c.032-.161.175-.277.341-.277h7.066c2.222 0 3.874.594 4.913 1.768 1.045 1.179 1.366 2.828.959 4.9-.166.844-.452 1.628-.85 2.329s-.924 1.353-1.563 1.933A6.88 6.88 0 0 1 50 21.37c-.926.298-2.116.449-3.536.449h-2.863l-.817 4.147c-.032.161-.175.277-.341.277h-3.675z" fill="#000"/><path d="M45.778 12.573h1.945c1.553 0 2.093.336 2.276.537.304.333.362 1.034.166 2.028-.22 1.113-.627 1.902-1.21 2.346-.597.454-1.569.684-2.887.684h-1.393l1.102-5.594zm3.337-3.996h-7.066c-.332 0-.618.232-.682.554L38.088 25.77a.68.68 0 0 0 .146.566.7.7 0 0 0 .536.249h3.675c.332 0 .618-.232.682-.554l.762-3.869h2.575c1.456 0 2.682-.157 3.644-.465.988-.317 1.898-.854 2.703-1.597.666-.605 1.214-1.282 1.629-2.016s.714-1.552.887-2.432c.43-2.181.081-3.927-1.038-5.191-1.108-1.251-2.849-1.885-5.174-1.885m-5.281 10.274h2.235c1.481 0 2.585-.274 3.31-.826s1.214-1.47 1.469-2.758c.243-1.237.133-2.109-.332-2.618s-1.396-.763-2.792-.763h-2.518l-1.372 6.964m5.281-9.589c2.126 0 3.677.55 4.651 1.651s1.268 2.637.879 4.609c-.16.812-.431 1.555-.812 2.228s-.88 1.289-1.496 1.848c-.734.677-1.549 1.16-2.446 1.448s-2.039.432-3.428.432h-3.148l-.872 4.424H38.77l3.279-16.639h7.066"/></g></symbol></svg>